<mxfile host="Electron" modified="2025-01-04T11:38:30.193Z" agent="Mozilla/5.0 (Windows NT 10.0; Win64; x64) AppleWebKit/537.36 (KHTML, like Gecko) draw.io/21.1.2 Chrome/106.0.5249.199 Electron/21.4.3 Safari/537.36" etag="OoOyu84ZmZjGx4NfWdfO" version="21.1.2" type="device">
  <diagram name="第 1 页" id="3CEuBtAzFzwej9cIra8h">
    <mxGraphModel dx="1454" dy="1647" grid="1" gridSize="10" guides="1" tooltips="1" connect="1" arrows="1" fold="1" page="1" pageScale="1" pageWidth="827" pageHeight="1169" math="1" shadow="0">
      <root>
        <mxCell id="0" />
        <mxCell id="1" parent="0" />
        <mxCell id="LWdlazdePorKhiV76W9d-1" style="edgeStyle=none;shape=connector;rounded=0;orthogonalLoop=1;jettySize=auto;html=1;entryX=0.5;entryY=1;entryDx=0;entryDy=0;labelBackgroundColor=default;strokeColor=#808080;strokeWidth=2;fontFamily=Helvetica;fontSize=11;fontColor=default;endArrow=blockThin;endFill=1;endSize=2;" edge="1" parent="1" source="LWdlazdePorKhiV76W9d-2" target="LWdlazdePorKhiV76W9d-43">
          <mxGeometry relative="1" as="geometry" />
        </mxCell>
        <mxCell id="LWdlazdePorKhiV76W9d-2" value="" style="rounded=1;whiteSpace=wrap;html=1;fontFamily=Helvetica;fontSize=11;fontColor=default;" vertex="1" parent="1">
          <mxGeometry x="-688.12" y="59" width="75.62" height="113" as="geometry" />
        </mxCell>
        <mxCell id="LWdlazdePorKhiV76W9d-3" value="" style="rounded=1;whiteSpace=wrap;html=1;fontFamily=Helvetica;fontSize=11;fontColor=default;strokeColor=#CCCCCC;dashed=1;" vertex="1" parent="1">
          <mxGeometry x="-703" y="-38" width="114" height="85" as="geometry" />
        </mxCell>
        <mxCell id="LWdlazdePorKhiV76W9d-4" style="edgeStyle=none;shape=connector;rounded=0;orthogonalLoop=1;jettySize=auto;html=1;entryX=0.5;entryY=1;entryDx=0;entryDy=0;labelBackgroundColor=default;strokeColor=default;strokeWidth=1;fontFamily=Helvetica;fontSize=11;fontColor=default;endArrow=blockThin;endFill=1;endSize=2;" edge="1" parent="1" source="LWdlazdePorKhiV76W9d-5" target="LWdlazdePorKhiV76W9d-8">
          <mxGeometry relative="1" as="geometry" />
        </mxCell>
        <mxCell id="LWdlazdePorKhiV76W9d-5" value="" style="shape=cube;whiteSpace=wrap;html=1;boundedLbl=1;backgroundOutline=1;darkOpacity=0.05;darkOpacity2=0.1;fontFamily=Helvetica;fontSize=11;fontColor=default;direction=east;" vertex="1" parent="1">
          <mxGeometry x="-691" y="-25.5" width="45" height="60" as="geometry" />
        </mxCell>
        <mxCell id="LWdlazdePorKhiV76W9d-6" style="edgeStyle=none;shape=connector;rounded=0;orthogonalLoop=1;jettySize=auto;html=1;entryX=0.5;entryY=1;entryDx=0;entryDy=0;labelBackgroundColor=default;strokeColor=default;strokeWidth=1;fontFamily=Helvetica;fontSize=11;fontColor=default;endArrow=blockThin;endFill=1;endSize=2;" edge="1" parent="1" source="LWdlazdePorKhiV76W9d-7" target="LWdlazdePorKhiV76W9d-11">
          <mxGeometry relative="1" as="geometry" />
        </mxCell>
        <mxCell id="LWdlazdePorKhiV76W9d-7" value="" style="rounded=0;whiteSpace=wrap;html=1;fontFamily=Helvetica;fontSize=11;fontColor=default;" vertex="1" parent="1">
          <mxGeometry x="-634.75" y="-24" width="12" height="57" as="geometry" />
        </mxCell>
        <mxCell id="LWdlazdePorKhiV76W9d-8" value="&lt;font style=&quot;font-size: 8px;&quot; face=&quot;Times New Roman&quot;&gt;BatchNorm&lt;/font&gt;" style="text;html=1;strokeColor=none;fillColor=none;align=center;verticalAlign=middle;whiteSpace=wrap;rounded=0;fontSize=11;fontFamily=Helvetica;fontColor=default;direction=west;rotation=-90;" vertex="1" parent="1">
          <mxGeometry x="-658.75" y="-1.5" width="57" height="12" as="geometry" />
        </mxCell>
        <mxCell id="LWdlazdePorKhiV76W9d-9" style="edgeStyle=none;shape=connector;rounded=0;orthogonalLoop=1;jettySize=auto;html=1;labelBackgroundColor=default;strokeColor=default;strokeWidth=1;fontFamily=Helvetica;fontSize=11;fontColor=default;endArrow=blockThin;endFill=1;endSize=2;" edge="1" parent="1" source="LWdlazdePorKhiV76W9d-10">
          <mxGeometry relative="1" as="geometry">
            <mxPoint x="-582.5" y="4.5" as="targetPoint" />
          </mxGeometry>
        </mxCell>
        <mxCell id="LWdlazdePorKhiV76W9d-10" value="" style="rounded=0;whiteSpace=wrap;html=1;fontFamily=Helvetica;fontSize=11;fontColor=default;" vertex="1" parent="1">
          <mxGeometry x="-609.25" y="-24" width="12" height="57" as="geometry" />
        </mxCell>
        <mxCell id="LWdlazdePorKhiV76W9d-11" value="&lt;font style=&quot;font-size: 8px;&quot; face=&quot;Times New Roman&quot;&gt;Relu&lt;/font&gt;" style="text;html=1;strokeColor=none;fillColor=none;align=center;verticalAlign=middle;whiteSpace=wrap;rounded=0;fontSize=11;fontFamily=Helvetica;fontColor=default;direction=west;rotation=-90;" vertex="1" parent="1">
          <mxGeometry x="-633.25" y="-1.5" width="57" height="12" as="geometry" />
        </mxCell>
        <mxCell id="LWdlazdePorKhiV76W9d-12" value="conv2d" style="text;html=1;strokeColor=none;fillColor=none;align=center;verticalAlign=middle;whiteSpace=wrap;rounded=0;fontSize=6;fontFamily=Times New Roman;fontColor=default;rotation=45;" vertex="1" parent="1">
          <mxGeometry x="-711.5" y="-9" width="60" height="30" as="geometry" />
        </mxCell>
        <mxCell id="LWdlazdePorKhiV76W9d-13" value="" style="rounded=1;whiteSpace=wrap;html=1;fontFamily=Helvetica;fontSize=11;fontColor=default;fillColor=#E6E6E6;" vertex="1" parent="1">
          <mxGeometry x="-726.38" y="100.75" width="21.88" height="29.5" as="geometry" />
        </mxCell>
        <mxCell id="LWdlazdePorKhiV76W9d-14" style="edgeStyle=none;shape=connector;rounded=0;orthogonalLoop=1;jettySize=auto;html=1;labelBackgroundColor=default;strokeColor=#808080;strokeWidth=2;fontFamily=Helvetica;fontSize=11;fontColor=default;endArrow=blockThin;endFill=1;endSize=2;exitX=1;exitY=0.5;exitDx=0;exitDy=0;entryX=0;entryY=0.5;entryDx=0;entryDy=0;" edge="1" parent="1" source="LWdlazdePorKhiV76W9d-13" target="LWdlazdePorKhiV76W9d-2">
          <mxGeometry relative="1" as="geometry">
            <mxPoint x="-712.99" y="99.5" as="sourcePoint" />
            <mxPoint x="-702.9959600000001" y="114.45799999999986" as="targetPoint" />
          </mxGeometry>
        </mxCell>
        <mxCell id="LWdlazdePorKhiV76W9d-15" value="&lt;font style=&quot;font-size: 9px;&quot; face=&quot;Times New Roman&quot;&gt;$$knn$$&lt;/font&gt;" style="text;html=1;strokeColor=none;fillColor=none;align=center;verticalAlign=middle;whiteSpace=wrap;rounded=0;fontSize=11;fontFamily=Helvetica;fontColor=default;direction=west;rotation=-90;" vertex="1" parent="1">
          <mxGeometry x="-728.4399999999999" y="109.5" width="23.94" height="12" as="geometry" />
        </mxCell>
        <mxCell id="LWdlazdePorKhiV76W9d-16" style="edgeStyle=none;shape=connector;rounded=0;orthogonalLoop=1;jettySize=auto;html=1;labelBackgroundColor=default;strokeColor=default;strokeWidth=1;fontFamily=Helvetica;fontSize=11;fontColor=default;endArrow=none;endFill=0;endSize=1;" edge="1" parent="1" source="LWdlazdePorKhiV76W9d-20" target="LWdlazdePorKhiV76W9d-21">
          <mxGeometry relative="1" as="geometry">
            <mxPoint x="-686" y="122" as="targetPoint" />
          </mxGeometry>
        </mxCell>
        <mxCell id="LWdlazdePorKhiV76W9d-17" style="edgeStyle=none;shape=connector;rounded=0;orthogonalLoop=1;jettySize=auto;html=1;labelBackgroundColor=default;strokeColor=default;strokeWidth=1;fontFamily=Helvetica;fontSize=11;fontColor=default;endArrow=none;endFill=0;endSize=1;" edge="1" parent="1" source="LWdlazdePorKhiV76W9d-20" target="LWdlazdePorKhiV76W9d-23">
          <mxGeometry relative="1" as="geometry" />
        </mxCell>
        <mxCell id="LWdlazdePorKhiV76W9d-18" style="edgeStyle=none;shape=connector;rounded=0;orthogonalLoop=1;jettySize=auto;html=1;labelBackgroundColor=default;strokeColor=default;strokeWidth=1;fontFamily=Helvetica;fontSize=11;fontColor=default;endArrow=none;endFill=0;endSize=1;" edge="1" parent="1" source="LWdlazdePorKhiV76W9d-20" target="LWdlazdePorKhiV76W9d-25">
          <mxGeometry relative="1" as="geometry" />
        </mxCell>
        <mxCell id="LWdlazdePorKhiV76W9d-19" style="edgeStyle=none;shape=connector;rounded=0;orthogonalLoop=1;jettySize=auto;html=1;labelBackgroundColor=default;strokeColor=default;strokeWidth=1;fontFamily=Helvetica;fontSize=11;fontColor=default;endArrow=none;endFill=0;endSize=1;" edge="1" parent="1" source="LWdlazdePorKhiV76W9d-20" target="LWdlazdePorKhiV76W9d-27">
          <mxGeometry relative="1" as="geometry" />
        </mxCell>
        <mxCell id="LWdlazdePorKhiV76W9d-20" value="" style="shape=waypoint;sketch=0;fillStyle=solid;size=6;pointerEvents=1;points=[];fillColor=none;resizable=0;rotatable=0;perimeter=centerPerimeter;snapToPoint=1;fontFamily=Helvetica;fontSize=11;fontColor=default;" vertex="1" parent="1">
          <mxGeometry x="-656" y="104.5" width="20" height="20" as="geometry" />
        </mxCell>
        <mxCell id="LWdlazdePorKhiV76W9d-21" value="" style="shape=waypoint;sketch=0;fillStyle=solid;size=6;pointerEvents=1;points=[];fillColor=none;resizable=0;rotatable=0;perimeter=centerPerimeter;snapToPoint=1;fontFamily=Helvetica;fontSize=11;fontColor=default;strokeWidth=0;" vertex="1" parent="1">
          <mxGeometry x="-639.5" y="123.75" width="20" height="20" as="geometry" />
        </mxCell>
        <mxCell id="LWdlazdePorKhiV76W9d-22" style="edgeStyle=none;shape=connector;rounded=0;orthogonalLoop=1;jettySize=auto;html=1;entryX=0.475;entryY=0.629;entryDx=0;entryDy=0;entryPerimeter=0;labelBackgroundColor=default;strokeColor=default;strokeWidth=1;fontFamily=Helvetica;fontSize=11;fontColor=default;endArrow=none;endFill=0;endSize=1;" edge="1" parent="1" source="LWdlazdePorKhiV76W9d-23" target="LWdlazdePorKhiV76W9d-21">
          <mxGeometry relative="1" as="geometry" />
        </mxCell>
        <mxCell id="LWdlazdePorKhiV76W9d-23" value="" style="shape=waypoint;sketch=0;fillStyle=solid;size=6;pointerEvents=1;points=[];fillColor=none;resizable=0;rotatable=0;perimeter=centerPerimeter;snapToPoint=1;fontFamily=Helvetica;fontSize=11;fontColor=default;strokeWidth=0.5;" vertex="1" parent="1">
          <mxGeometry x="-657" y="134.5" width="20" height="20" as="geometry" />
        </mxCell>
        <mxCell id="LWdlazdePorKhiV76W9d-24" style="edgeStyle=none;shape=connector;rounded=0;orthogonalLoop=1;jettySize=auto;html=1;labelBackgroundColor=default;strokeColor=default;strokeWidth=1;fontFamily=Helvetica;fontSize=11;fontColor=default;endArrow=none;endFill=0;endSize=1;" edge="1" parent="1" source="LWdlazdePorKhiV76W9d-25" target="LWdlazdePorKhiV76W9d-21">
          <mxGeometry relative="1" as="geometry" />
        </mxCell>
        <mxCell id="LWdlazdePorKhiV76W9d-25" value="" style="shape=waypoint;sketch=0;fillStyle=solid;size=6;pointerEvents=1;points=[];fillColor=none;resizable=0;rotatable=0;perimeter=centerPerimeter;snapToPoint=1;fontFamily=Helvetica;fontSize=11;fontColor=default;strokeWidth=0.75;" vertex="1" parent="1">
          <mxGeometry x="-636" y="72" width="20" height="20" as="geometry" />
        </mxCell>
        <mxCell id="LWdlazdePorKhiV76W9d-26" style="edgeStyle=none;shape=connector;rounded=0;orthogonalLoop=1;jettySize=auto;html=1;labelBackgroundColor=default;strokeColor=default;strokeWidth=1;fontFamily=Helvetica;fontSize=11;fontColor=default;endArrow=none;endFill=0;endSize=1;" edge="1" parent="1" source="LWdlazdePorKhiV76W9d-27" target="LWdlazdePorKhiV76W9d-23">
          <mxGeometry relative="1" as="geometry" />
        </mxCell>
        <mxCell id="LWdlazdePorKhiV76W9d-27" value="" style="shape=waypoint;sketch=0;fillStyle=solid;size=6;pointerEvents=1;points=[];fillColor=none;resizable=0;rotatable=0;perimeter=centerPerimeter;snapToPoint=1;fontFamily=Helvetica;fontSize=11;fontColor=default;strokeWidth=0.5;" vertex="1" parent="1">
          <mxGeometry x="-683" y="128" width="20" height="20" as="geometry" />
        </mxCell>
        <mxCell id="LWdlazdePorKhiV76W9d-28" style="edgeStyle=none;shape=connector;rounded=0;orthogonalLoop=1;jettySize=auto;html=1;labelBackgroundColor=default;strokeColor=default;strokeWidth=1;fontFamily=Helvetica;fontSize=11;fontColor=default;endArrow=none;endFill=0;endSize=1;" edge="1" parent="1" source="LWdlazdePorKhiV76W9d-31" target="LWdlazdePorKhiV76W9d-27">
          <mxGeometry relative="1" as="geometry" />
        </mxCell>
        <mxCell id="LWdlazdePorKhiV76W9d-29" style="edgeStyle=none;shape=connector;rounded=0;orthogonalLoop=1;jettySize=auto;html=1;entryX=0.364;entryY=0.442;entryDx=0;entryDy=0;entryPerimeter=0;labelBackgroundColor=default;strokeColor=default;strokeWidth=1;fontFamily=Helvetica;fontSize=11;fontColor=default;endArrow=none;endFill=0;endSize=1;" edge="1" parent="1" source="LWdlazdePorKhiV76W9d-31" target="LWdlazdePorKhiV76W9d-20">
          <mxGeometry relative="1" as="geometry" />
        </mxCell>
        <mxCell id="LWdlazdePorKhiV76W9d-30" style="edgeStyle=none;shape=connector;rounded=0;orthogonalLoop=1;jettySize=auto;html=1;labelBackgroundColor=default;strokeColor=default;strokeWidth=1;fontFamily=Helvetica;fontSize=11;fontColor=default;endArrow=none;endFill=0;endSize=1;" edge="1" parent="1" source="LWdlazdePorKhiV76W9d-31" target="LWdlazdePorKhiV76W9d-34">
          <mxGeometry relative="1" as="geometry" />
        </mxCell>
        <mxCell id="LWdlazdePorKhiV76W9d-31" value="" style="shape=waypoint;sketch=0;fillStyle=solid;size=6;pointerEvents=1;points=[];fillColor=none;resizable=0;rotatable=0;perimeter=centerPerimeter;snapToPoint=1;fontFamily=Helvetica;fontSize=11;fontColor=default;strokeWidth=0.05;" vertex="1" parent="1">
          <mxGeometry x="-691" y="98" width="20" height="20" as="geometry" />
        </mxCell>
        <mxCell id="LWdlazdePorKhiV76W9d-32" style="edgeStyle=none;shape=connector;rounded=0;orthogonalLoop=1;jettySize=auto;html=1;entryX=0.461;entryY=0.372;entryDx=0;entryDy=0;entryPerimeter=0;labelBackgroundColor=default;strokeColor=default;strokeWidth=1;fontFamily=Helvetica;fontSize=11;fontColor=default;endArrow=none;endFill=0;endSize=1;" edge="1" parent="1" source="LWdlazdePorKhiV76W9d-34" target="LWdlazdePorKhiV76W9d-20">
          <mxGeometry relative="1" as="geometry" />
        </mxCell>
        <mxCell id="LWdlazdePorKhiV76W9d-33" style="edgeStyle=none;shape=connector;rounded=0;orthogonalLoop=1;jettySize=auto;html=1;labelBackgroundColor=default;strokeColor=default;strokeWidth=1;fontFamily=Helvetica;fontSize=11;fontColor=default;endArrow=none;endFill=0;endSize=1;" edge="1" parent="1" source="LWdlazdePorKhiV76W9d-34" target="LWdlazdePorKhiV76W9d-25">
          <mxGeometry relative="1" as="geometry" />
        </mxCell>
        <mxCell id="LWdlazdePorKhiV76W9d-34" value="" style="shape=waypoint;sketch=0;fillStyle=solid;size=6;pointerEvents=1;points=[];fillColor=none;resizable=0;rotatable=0;perimeter=centerPerimeter;snapToPoint=1;fontFamily=Helvetica;fontSize=11;fontColor=default;strokeWidth=0.5;" vertex="1" parent="1">
          <mxGeometry x="-677" y="66" width="20" height="20" as="geometry" />
        </mxCell>
        <mxCell id="LWdlazdePorKhiV76W9d-35" style="edgeStyle=none;shape=connector;rounded=0;orthogonalLoop=1;jettySize=auto;html=1;entryX=0.37;entryY=0.689;entryDx=0;entryDy=0;entryPerimeter=0;labelBackgroundColor=default;strokeColor=default;strokeWidth=1;fontFamily=Helvetica;fontSize=11;fontColor=default;endArrow=blockThin;endFill=1;endSize=2;" edge="1" parent="1" target="LWdlazdePorKhiV76W9d-12">
          <mxGeometry relative="1" as="geometry">
            <mxPoint x="-714.5" y="4.5" as="sourcePoint" />
          </mxGeometry>
        </mxCell>
        <mxCell id="LWdlazdePorKhiV76W9d-36" style="edgeStyle=none;shape=connector;rounded=0;orthogonalLoop=1;jettySize=auto;html=1;labelBackgroundColor=default;strokeColor=#CCCCCC;strokeWidth=1;fontFamily=Helvetica;fontSize=11;fontColor=default;endArrow=none;endFill=0;endSize=1;dashed=1;exitX=0.542;exitY=-0.006;exitDx=0;exitDy=0;exitPerimeter=0;" edge="1" parent="1" source="LWdlazdePorKhiV76W9d-2" target="LWdlazdePorKhiV76W9d-3">
          <mxGeometry relative="1" as="geometry">
            <mxPoint x="-647.5" y="78" as="sourcePoint" />
          </mxGeometry>
        </mxCell>
        <mxCell id="LWdlazdePorKhiV76W9d-37" value="&lt;b&gt;&lt;font style=&quot;font-size: 13px;&quot; face=&quot;Times New Roman&quot;&gt;64&lt;/font&gt;&lt;/b&gt;" style="text;html=1;strokeColor=none;fillColor=none;align=center;verticalAlign=middle;whiteSpace=wrap;rounded=0;fontSize=11;fontFamily=Helvetica;fontColor=default;" vertex="1" parent="1">
          <mxGeometry x="-679.5" y="142.5" width="60" height="30" as="geometry" />
        </mxCell>
        <mxCell id="LWdlazdePorKhiV76W9d-38" style="edgeStyle=none;shape=connector;rounded=0;orthogonalLoop=1;jettySize=auto;html=1;entryX=0.5;entryY=1;entryDx=0;entryDy=0;labelBackgroundColor=default;strokeColor=#808080;strokeWidth=2;fontFamily=Helvetica;fontSize=11;fontColor=default;endArrow=blockThin;endFill=1;endSize=2;" edge="1" parent="1" source="LWdlazdePorKhiV76W9d-39" target="LWdlazdePorKhiV76W9d-69">
          <mxGeometry relative="1" as="geometry" />
        </mxCell>
        <mxCell id="LWdlazdePorKhiV76W9d-39" value="" style="rounded=1;whiteSpace=wrap;html=1;fontFamily=Helvetica;fontSize=11;fontColor=default;" vertex="1" parent="1">
          <mxGeometry x="-559.12" y="59" width="75.62" height="113" as="geometry" />
        </mxCell>
        <mxCell id="LWdlazdePorKhiV76W9d-40" style="edgeStyle=orthogonalEdgeStyle;shape=connector;rounded=0;orthogonalLoop=1;jettySize=auto;html=1;labelBackgroundColor=default;strokeColor=#808080;strokeWidth=2;fontFamily=Helvetica;fontSize=11;fontColor=default;endArrow=blockThin;endFill=1;endSize=2;entryX=0.25;entryY=1;entryDx=0;entryDy=0;" edge="1" parent="1" source="LWdlazdePorKhiV76W9d-41" target="LWdlazdePorKhiV76W9d-120">
          <mxGeometry relative="1" as="geometry">
            <mxPoint x="-161.5" y="140" as="targetPoint" />
            <Array as="points">
              <mxPoint x="-586" y="190" />
              <mxPoint x="-177" y="190" />
              <mxPoint x="-177" y="130" />
              <mxPoint x="-178" y="130" />
            </Array>
          </mxGeometry>
        </mxCell>
        <mxCell id="LWdlazdePorKhiV76W9d-41" value="" style="rounded=1;whiteSpace=wrap;html=1;fontFamily=Helvetica;fontSize=11;fontColor=default;" vertex="1" parent="1">
          <mxGeometry x="-594" y="90.5" width="15" height="50" as="geometry" />
        </mxCell>
        <mxCell id="LWdlazdePorKhiV76W9d-42" style="edgeStyle=none;shape=connector;rounded=0;orthogonalLoop=1;jettySize=auto;html=1;labelBackgroundColor=default;strokeColor=#808080;strokeWidth=2;fontFamily=Helvetica;fontSize=11;fontColor=default;endArrow=blockThin;endFill=1;endSize=2;exitX=1;exitY=0.5;exitDx=0;exitDy=0;entryX=0;entryY=0.5;entryDx=0;entryDy=0;" edge="1" parent="1" source="LWdlazdePorKhiV76W9d-41" target="LWdlazdePorKhiV76W9d-39">
          <mxGeometry relative="1" as="geometry">
            <mxPoint x="-557.49" y="99.5" as="sourcePoint" />
            <mxPoint x="-547.4959600000001" y="114.45799999999986" as="targetPoint" />
          </mxGeometry>
        </mxCell>
        <mxCell id="LWdlazdePorKhiV76W9d-43" value="&lt;font style=&quot;font-size: 7px;&quot; face=&quot;Times New Roman&quot;&gt;$$[B,N,64]$$&lt;/font&gt;" style="text;html=1;strokeColor=none;fillColor=none;align=center;verticalAlign=middle;whiteSpace=wrap;rounded=0;fontSize=11;fontFamily=Helvetica;fontColor=default;direction=west;rotation=-90;" vertex="1" parent="1">
          <mxGeometry x="-616" y="109.5" width="57" height="12" as="geometry" />
        </mxCell>
        <mxCell id="LWdlazdePorKhiV76W9d-44" style="edgeStyle=none;shape=connector;rounded=0;orthogonalLoop=1;jettySize=auto;html=1;labelBackgroundColor=default;strokeColor=default;strokeWidth=1;fontFamily=Helvetica;fontSize=11;fontColor=default;endArrow=none;endFill=0;endSize=1;" edge="1" parent="1" source="LWdlazdePorKhiV76W9d-48" target="LWdlazdePorKhiV76W9d-49">
          <mxGeometry relative="1" as="geometry">
            <mxPoint x="-557" y="122" as="targetPoint" />
          </mxGeometry>
        </mxCell>
        <mxCell id="LWdlazdePorKhiV76W9d-45" style="edgeStyle=none;shape=connector;rounded=0;orthogonalLoop=1;jettySize=auto;html=1;labelBackgroundColor=default;strokeColor=default;strokeWidth=1;fontFamily=Helvetica;fontSize=11;fontColor=default;endArrow=none;endFill=0;endSize=1;" edge="1" parent="1" source="LWdlazdePorKhiV76W9d-48" target="LWdlazdePorKhiV76W9d-51">
          <mxGeometry relative="1" as="geometry" />
        </mxCell>
        <mxCell id="LWdlazdePorKhiV76W9d-46" style="edgeStyle=none;shape=connector;rounded=0;orthogonalLoop=1;jettySize=auto;html=1;labelBackgroundColor=default;strokeColor=default;strokeWidth=1;fontFamily=Helvetica;fontSize=11;fontColor=default;endArrow=none;endFill=0;endSize=1;" edge="1" parent="1" source="LWdlazdePorKhiV76W9d-48" target="LWdlazdePorKhiV76W9d-53">
          <mxGeometry relative="1" as="geometry" />
        </mxCell>
        <mxCell id="LWdlazdePorKhiV76W9d-47" style="edgeStyle=none;shape=connector;rounded=0;orthogonalLoop=1;jettySize=auto;html=1;labelBackgroundColor=default;strokeColor=default;strokeWidth=1;fontFamily=Helvetica;fontSize=11;fontColor=default;endArrow=none;endFill=0;endSize=1;" edge="1" parent="1" source="LWdlazdePorKhiV76W9d-48" target="LWdlazdePorKhiV76W9d-55">
          <mxGeometry relative="1" as="geometry" />
        </mxCell>
        <mxCell id="LWdlazdePorKhiV76W9d-48" value="" style="shape=waypoint;sketch=0;fillStyle=solid;size=6;pointerEvents=1;points=[];fillColor=none;resizable=0;rotatable=0;perimeter=centerPerimeter;snapToPoint=1;fontFamily=Helvetica;fontSize=11;fontColor=default;" vertex="1" parent="1">
          <mxGeometry x="-527" y="104.5" width="20" height="20" as="geometry" />
        </mxCell>
        <mxCell id="LWdlazdePorKhiV76W9d-49" value="" style="shape=waypoint;sketch=0;fillStyle=solid;size=6;pointerEvents=1;points=[];fillColor=none;resizable=0;rotatable=0;perimeter=centerPerimeter;snapToPoint=1;fontFamily=Helvetica;fontSize=11;fontColor=default;strokeWidth=0;" vertex="1" parent="1">
          <mxGeometry x="-510.5" y="123.75" width="20" height="20" as="geometry" />
        </mxCell>
        <mxCell id="LWdlazdePorKhiV76W9d-50" style="edgeStyle=none;shape=connector;rounded=0;orthogonalLoop=1;jettySize=auto;html=1;entryX=0.475;entryY=0.629;entryDx=0;entryDy=0;entryPerimeter=0;labelBackgroundColor=default;strokeColor=default;strokeWidth=1;fontFamily=Helvetica;fontSize=11;fontColor=default;endArrow=none;endFill=0;endSize=1;" edge="1" parent="1" source="LWdlazdePorKhiV76W9d-51" target="LWdlazdePorKhiV76W9d-49">
          <mxGeometry relative="1" as="geometry" />
        </mxCell>
        <mxCell id="LWdlazdePorKhiV76W9d-51" value="" style="shape=waypoint;sketch=0;fillStyle=solid;size=6;pointerEvents=1;points=[];fillColor=none;resizable=0;rotatable=0;perimeter=centerPerimeter;snapToPoint=1;fontFamily=Helvetica;fontSize=11;fontColor=default;strokeWidth=0.5;" vertex="1" parent="1">
          <mxGeometry x="-528" y="134.5" width="20" height="20" as="geometry" />
        </mxCell>
        <mxCell id="LWdlazdePorKhiV76W9d-52" style="edgeStyle=none;shape=connector;rounded=0;orthogonalLoop=1;jettySize=auto;html=1;labelBackgroundColor=default;strokeColor=default;strokeWidth=1;fontFamily=Helvetica;fontSize=11;fontColor=default;endArrow=none;endFill=0;endSize=1;" edge="1" parent="1" source="LWdlazdePorKhiV76W9d-53" target="LWdlazdePorKhiV76W9d-49">
          <mxGeometry relative="1" as="geometry" />
        </mxCell>
        <mxCell id="LWdlazdePorKhiV76W9d-53" value="" style="shape=waypoint;sketch=0;fillStyle=solid;size=6;pointerEvents=1;points=[];fillColor=none;resizable=0;rotatable=0;perimeter=centerPerimeter;snapToPoint=1;fontFamily=Helvetica;fontSize=11;fontColor=default;strokeWidth=0.75;" vertex="1" parent="1">
          <mxGeometry x="-507" y="72" width="20" height="20" as="geometry" />
        </mxCell>
        <mxCell id="LWdlazdePorKhiV76W9d-54" style="edgeStyle=none;shape=connector;rounded=0;orthogonalLoop=1;jettySize=auto;html=1;labelBackgroundColor=default;strokeColor=default;strokeWidth=1;fontFamily=Helvetica;fontSize=11;fontColor=default;endArrow=none;endFill=0;endSize=1;" edge="1" parent="1" source="LWdlazdePorKhiV76W9d-55" target="LWdlazdePorKhiV76W9d-51">
          <mxGeometry relative="1" as="geometry" />
        </mxCell>
        <mxCell id="LWdlazdePorKhiV76W9d-55" value="" style="shape=waypoint;sketch=0;fillStyle=solid;size=6;pointerEvents=1;points=[];fillColor=none;resizable=0;rotatable=0;perimeter=centerPerimeter;snapToPoint=1;fontFamily=Helvetica;fontSize=11;fontColor=default;strokeWidth=0.5;" vertex="1" parent="1">
          <mxGeometry x="-554" y="128" width="20" height="20" as="geometry" />
        </mxCell>
        <mxCell id="LWdlazdePorKhiV76W9d-56" style="edgeStyle=none;shape=connector;rounded=0;orthogonalLoop=1;jettySize=auto;html=1;labelBackgroundColor=default;strokeColor=default;strokeWidth=1;fontFamily=Helvetica;fontSize=11;fontColor=default;endArrow=none;endFill=0;endSize=1;" edge="1" parent="1" source="LWdlazdePorKhiV76W9d-59" target="LWdlazdePorKhiV76W9d-55">
          <mxGeometry relative="1" as="geometry" />
        </mxCell>
        <mxCell id="LWdlazdePorKhiV76W9d-57" style="edgeStyle=none;shape=connector;rounded=0;orthogonalLoop=1;jettySize=auto;html=1;entryX=0.364;entryY=0.442;entryDx=0;entryDy=0;entryPerimeter=0;labelBackgroundColor=default;strokeColor=default;strokeWidth=1;fontFamily=Helvetica;fontSize=11;fontColor=default;endArrow=none;endFill=0;endSize=1;" edge="1" parent="1" source="LWdlazdePorKhiV76W9d-59" target="LWdlazdePorKhiV76W9d-48">
          <mxGeometry relative="1" as="geometry" />
        </mxCell>
        <mxCell id="LWdlazdePorKhiV76W9d-58" style="edgeStyle=none;shape=connector;rounded=0;orthogonalLoop=1;jettySize=auto;html=1;labelBackgroundColor=default;strokeColor=default;strokeWidth=1;fontFamily=Helvetica;fontSize=11;fontColor=default;endArrow=none;endFill=0;endSize=1;" edge="1" parent="1" source="LWdlazdePorKhiV76W9d-59" target="LWdlazdePorKhiV76W9d-62">
          <mxGeometry relative="1" as="geometry" />
        </mxCell>
        <mxCell id="LWdlazdePorKhiV76W9d-59" value="" style="shape=waypoint;sketch=0;fillStyle=solid;size=6;pointerEvents=1;points=[];fillColor=none;resizable=0;rotatable=0;perimeter=centerPerimeter;snapToPoint=1;fontFamily=Helvetica;fontSize=11;fontColor=default;strokeWidth=0.05;" vertex="1" parent="1">
          <mxGeometry x="-562" y="98" width="20" height="20" as="geometry" />
        </mxCell>
        <mxCell id="LWdlazdePorKhiV76W9d-60" style="edgeStyle=none;shape=connector;rounded=0;orthogonalLoop=1;jettySize=auto;html=1;entryX=0.461;entryY=0.372;entryDx=0;entryDy=0;entryPerimeter=0;labelBackgroundColor=default;strokeColor=default;strokeWidth=1;fontFamily=Helvetica;fontSize=11;fontColor=default;endArrow=none;endFill=0;endSize=1;" edge="1" parent="1" source="LWdlazdePorKhiV76W9d-62" target="LWdlazdePorKhiV76W9d-48">
          <mxGeometry relative="1" as="geometry" />
        </mxCell>
        <mxCell id="LWdlazdePorKhiV76W9d-61" style="edgeStyle=none;shape=connector;rounded=0;orthogonalLoop=1;jettySize=auto;html=1;labelBackgroundColor=default;strokeColor=default;strokeWidth=1;fontFamily=Helvetica;fontSize=11;fontColor=default;endArrow=none;endFill=0;endSize=1;" edge="1" parent="1" source="LWdlazdePorKhiV76W9d-62" target="LWdlazdePorKhiV76W9d-53">
          <mxGeometry relative="1" as="geometry" />
        </mxCell>
        <mxCell id="LWdlazdePorKhiV76W9d-62" value="" style="shape=waypoint;sketch=0;fillStyle=solid;size=6;pointerEvents=1;points=[];fillColor=none;resizable=0;rotatable=0;perimeter=centerPerimeter;snapToPoint=1;fontFamily=Helvetica;fontSize=11;fontColor=default;strokeWidth=0.5;" vertex="1" parent="1">
          <mxGeometry x="-548" y="66" width="20" height="20" as="geometry" />
        </mxCell>
        <mxCell id="LWdlazdePorKhiV76W9d-63" value="&lt;b&gt;&lt;font style=&quot;font-size: 13px;&quot; face=&quot;Times New Roman&quot;&gt;128&lt;/font&gt;&lt;/b&gt;" style="text;html=1;strokeColor=none;fillColor=none;align=center;verticalAlign=middle;whiteSpace=wrap;rounded=0;fontSize=11;fontFamily=Helvetica;fontColor=default;" vertex="1" parent="1">
          <mxGeometry x="-550.5" y="142.5" width="60" height="30" as="geometry" />
        </mxCell>
        <mxCell id="LWdlazdePorKhiV76W9d-64" style="edgeStyle=none;shape=connector;rounded=0;orthogonalLoop=1;jettySize=auto;html=1;entryX=0.5;entryY=1;entryDx=0;entryDy=0;labelBackgroundColor=default;strokeColor=#808080;strokeWidth=2;fontFamily=Helvetica;fontSize=11;fontColor=default;endArrow=blockThin;endFill=1;endSize=2;" edge="1" parent="1" source="LWdlazdePorKhiV76W9d-65" target="LWdlazdePorKhiV76W9d-95">
          <mxGeometry relative="1" as="geometry" />
        </mxCell>
        <mxCell id="LWdlazdePorKhiV76W9d-65" value="" style="rounded=1;whiteSpace=wrap;html=1;fontFamily=Helvetica;fontSize=11;fontColor=default;" vertex="1" parent="1">
          <mxGeometry x="-431.12" y="59" width="75.62" height="113" as="geometry" />
        </mxCell>
        <mxCell id="LWdlazdePorKhiV76W9d-66" style="edgeStyle=orthogonalEdgeStyle;shape=connector;rounded=0;orthogonalLoop=1;jettySize=auto;html=1;labelBackgroundColor=default;strokeColor=#808080;strokeWidth=2;fontFamily=Helvetica;fontSize=11;fontColor=default;endArrow=blockThin;endFill=1;endSize=2;entryX=0.25;entryY=0;entryDx=0;entryDy=0;" edge="1" parent="1" source="LWdlazdePorKhiV76W9d-67" target="LWdlazdePorKhiV76W9d-120">
          <mxGeometry relative="1" as="geometry">
            <mxPoint x="-457.5" y="60" as="targetPoint" />
            <Array as="points">
              <mxPoint x="-457" y="30" />
              <mxPoint x="-178" y="30" />
            </Array>
          </mxGeometry>
        </mxCell>
        <mxCell id="LWdlazdePorKhiV76W9d-67" value="" style="rounded=1;whiteSpace=wrap;html=1;fontFamily=Helvetica;fontSize=11;fontColor=default;" vertex="1" parent="1">
          <mxGeometry x="-465" y="90.5" width="15" height="50" as="geometry" />
        </mxCell>
        <mxCell id="LWdlazdePorKhiV76W9d-68" style="edgeStyle=none;shape=connector;rounded=0;orthogonalLoop=1;jettySize=auto;html=1;labelBackgroundColor=default;strokeColor=#808080;strokeWidth=2;fontFamily=Helvetica;fontSize=11;fontColor=default;endArrow=blockThin;endFill=1;endSize=2;exitX=1;exitY=0.5;exitDx=0;exitDy=0;entryX=0;entryY=0.5;entryDx=0;entryDy=0;" edge="1" parent="1" source="LWdlazdePorKhiV76W9d-67" target="LWdlazdePorKhiV76W9d-65">
          <mxGeometry relative="1" as="geometry">
            <mxPoint x="-428.49" y="99.5" as="sourcePoint" />
            <mxPoint x="-418.4959600000001" y="114.45799999999986" as="targetPoint" />
          </mxGeometry>
        </mxCell>
        <mxCell id="LWdlazdePorKhiV76W9d-69" value="&lt;font style=&quot;font-size: 7px;&quot; face=&quot;Times New Roman&quot;&gt;$$[B,N,128]$$&lt;/font&gt;" style="text;html=1;strokeColor=none;fillColor=none;align=center;verticalAlign=middle;whiteSpace=wrap;rounded=0;fontSize=11;fontFamily=Helvetica;fontColor=default;direction=west;rotation=-90;" vertex="1" parent="1">
          <mxGeometry x="-487" y="109.5" width="57" height="12" as="geometry" />
        </mxCell>
        <mxCell id="LWdlazdePorKhiV76W9d-70" style="edgeStyle=none;shape=connector;rounded=0;orthogonalLoop=1;jettySize=auto;html=1;labelBackgroundColor=default;strokeColor=default;strokeWidth=1;fontFamily=Helvetica;fontSize=11;fontColor=default;endArrow=none;endFill=0;endSize=1;" edge="1" parent="1" source="LWdlazdePorKhiV76W9d-74" target="LWdlazdePorKhiV76W9d-75">
          <mxGeometry relative="1" as="geometry">
            <mxPoint x="-429" y="122" as="targetPoint" />
          </mxGeometry>
        </mxCell>
        <mxCell id="LWdlazdePorKhiV76W9d-71" style="edgeStyle=none;shape=connector;rounded=0;orthogonalLoop=1;jettySize=auto;html=1;labelBackgroundColor=default;strokeColor=default;strokeWidth=1;fontFamily=Helvetica;fontSize=11;fontColor=default;endArrow=none;endFill=0;endSize=1;" edge="1" parent="1" source="LWdlazdePorKhiV76W9d-74" target="LWdlazdePorKhiV76W9d-77">
          <mxGeometry relative="1" as="geometry" />
        </mxCell>
        <mxCell id="LWdlazdePorKhiV76W9d-72" style="edgeStyle=none;shape=connector;rounded=0;orthogonalLoop=1;jettySize=auto;html=1;labelBackgroundColor=default;strokeColor=default;strokeWidth=1;fontFamily=Helvetica;fontSize=11;fontColor=default;endArrow=none;endFill=0;endSize=1;" edge="1" parent="1" source="LWdlazdePorKhiV76W9d-74" target="LWdlazdePorKhiV76W9d-79">
          <mxGeometry relative="1" as="geometry" />
        </mxCell>
        <mxCell id="LWdlazdePorKhiV76W9d-73" style="edgeStyle=none;shape=connector;rounded=0;orthogonalLoop=1;jettySize=auto;html=1;labelBackgroundColor=default;strokeColor=default;strokeWidth=1;fontFamily=Helvetica;fontSize=11;fontColor=default;endArrow=none;endFill=0;endSize=1;" edge="1" parent="1" source="LWdlazdePorKhiV76W9d-74" target="LWdlazdePorKhiV76W9d-81">
          <mxGeometry relative="1" as="geometry" />
        </mxCell>
        <mxCell id="LWdlazdePorKhiV76W9d-74" value="" style="shape=waypoint;sketch=0;fillStyle=solid;size=6;pointerEvents=1;points=[];fillColor=none;resizable=0;rotatable=0;perimeter=centerPerimeter;snapToPoint=1;fontFamily=Helvetica;fontSize=11;fontColor=default;" vertex="1" parent="1">
          <mxGeometry x="-399" y="104.5" width="20" height="20" as="geometry" />
        </mxCell>
        <mxCell id="LWdlazdePorKhiV76W9d-75" value="" style="shape=waypoint;sketch=0;fillStyle=solid;size=6;pointerEvents=1;points=[];fillColor=none;resizable=0;rotatable=0;perimeter=centerPerimeter;snapToPoint=1;fontFamily=Helvetica;fontSize=11;fontColor=default;strokeWidth=0;" vertex="1" parent="1">
          <mxGeometry x="-382.5" y="123.75" width="20" height="20" as="geometry" />
        </mxCell>
        <mxCell id="LWdlazdePorKhiV76W9d-76" style="edgeStyle=none;shape=connector;rounded=0;orthogonalLoop=1;jettySize=auto;html=1;entryX=0.475;entryY=0.629;entryDx=0;entryDy=0;entryPerimeter=0;labelBackgroundColor=default;strokeColor=default;strokeWidth=1;fontFamily=Helvetica;fontSize=11;fontColor=default;endArrow=none;endFill=0;endSize=1;" edge="1" parent="1" source="LWdlazdePorKhiV76W9d-77" target="LWdlazdePorKhiV76W9d-75">
          <mxGeometry relative="1" as="geometry" />
        </mxCell>
        <mxCell id="LWdlazdePorKhiV76W9d-77" value="" style="shape=waypoint;sketch=0;fillStyle=solid;size=6;pointerEvents=1;points=[];fillColor=none;resizable=0;rotatable=0;perimeter=centerPerimeter;snapToPoint=1;fontFamily=Helvetica;fontSize=11;fontColor=default;strokeWidth=0.5;" vertex="1" parent="1">
          <mxGeometry x="-400" y="134.5" width="20" height="20" as="geometry" />
        </mxCell>
        <mxCell id="LWdlazdePorKhiV76W9d-78" style="edgeStyle=none;shape=connector;rounded=0;orthogonalLoop=1;jettySize=auto;html=1;labelBackgroundColor=default;strokeColor=default;strokeWidth=1;fontFamily=Helvetica;fontSize=11;fontColor=default;endArrow=none;endFill=0;endSize=1;" edge="1" parent="1" source="LWdlazdePorKhiV76W9d-79" target="LWdlazdePorKhiV76W9d-75">
          <mxGeometry relative="1" as="geometry" />
        </mxCell>
        <mxCell id="LWdlazdePorKhiV76W9d-79" value="" style="shape=waypoint;sketch=0;fillStyle=solid;size=6;pointerEvents=1;points=[];fillColor=none;resizable=0;rotatable=0;perimeter=centerPerimeter;snapToPoint=1;fontFamily=Helvetica;fontSize=11;fontColor=default;strokeWidth=0.75;" vertex="1" parent="1">
          <mxGeometry x="-379" y="72" width="20" height="20" as="geometry" />
        </mxCell>
        <mxCell id="LWdlazdePorKhiV76W9d-80" style="edgeStyle=none;shape=connector;rounded=0;orthogonalLoop=1;jettySize=auto;html=1;labelBackgroundColor=default;strokeColor=default;strokeWidth=1;fontFamily=Helvetica;fontSize=11;fontColor=default;endArrow=none;endFill=0;endSize=1;" edge="1" parent="1" source="LWdlazdePorKhiV76W9d-81" target="LWdlazdePorKhiV76W9d-77">
          <mxGeometry relative="1" as="geometry" />
        </mxCell>
        <mxCell id="LWdlazdePorKhiV76W9d-81" value="" style="shape=waypoint;sketch=0;fillStyle=solid;size=6;pointerEvents=1;points=[];fillColor=none;resizable=0;rotatable=0;perimeter=centerPerimeter;snapToPoint=1;fontFamily=Helvetica;fontSize=11;fontColor=default;strokeWidth=0.5;" vertex="1" parent="1">
          <mxGeometry x="-426" y="128" width="20" height="20" as="geometry" />
        </mxCell>
        <mxCell id="LWdlazdePorKhiV76W9d-82" style="edgeStyle=none;shape=connector;rounded=0;orthogonalLoop=1;jettySize=auto;html=1;labelBackgroundColor=default;strokeColor=default;strokeWidth=1;fontFamily=Helvetica;fontSize=11;fontColor=default;endArrow=none;endFill=0;endSize=1;" edge="1" parent="1" source="LWdlazdePorKhiV76W9d-85" target="LWdlazdePorKhiV76W9d-81">
          <mxGeometry relative="1" as="geometry" />
        </mxCell>
        <mxCell id="LWdlazdePorKhiV76W9d-83" style="edgeStyle=none;shape=connector;rounded=0;orthogonalLoop=1;jettySize=auto;html=1;entryX=0.364;entryY=0.442;entryDx=0;entryDy=0;entryPerimeter=0;labelBackgroundColor=default;strokeColor=default;strokeWidth=1;fontFamily=Helvetica;fontSize=11;fontColor=default;endArrow=none;endFill=0;endSize=1;" edge="1" parent="1" source="LWdlazdePorKhiV76W9d-85" target="LWdlazdePorKhiV76W9d-74">
          <mxGeometry relative="1" as="geometry" />
        </mxCell>
        <mxCell id="LWdlazdePorKhiV76W9d-84" style="edgeStyle=none;shape=connector;rounded=0;orthogonalLoop=1;jettySize=auto;html=1;labelBackgroundColor=default;strokeColor=default;strokeWidth=1;fontFamily=Helvetica;fontSize=11;fontColor=default;endArrow=none;endFill=0;endSize=1;" edge="1" parent="1" source="LWdlazdePorKhiV76W9d-85" target="LWdlazdePorKhiV76W9d-88">
          <mxGeometry relative="1" as="geometry" />
        </mxCell>
        <mxCell id="LWdlazdePorKhiV76W9d-85" value="" style="shape=waypoint;sketch=0;fillStyle=solid;size=6;pointerEvents=1;points=[];fillColor=none;resizable=0;rotatable=0;perimeter=centerPerimeter;snapToPoint=1;fontFamily=Helvetica;fontSize=11;fontColor=default;strokeWidth=0.05;" vertex="1" parent="1">
          <mxGeometry x="-434" y="98" width="20" height="20" as="geometry" />
        </mxCell>
        <mxCell id="LWdlazdePorKhiV76W9d-86" style="edgeStyle=none;shape=connector;rounded=0;orthogonalLoop=1;jettySize=auto;html=1;entryX=0.461;entryY=0.372;entryDx=0;entryDy=0;entryPerimeter=0;labelBackgroundColor=default;strokeColor=default;strokeWidth=1;fontFamily=Helvetica;fontSize=11;fontColor=default;endArrow=none;endFill=0;endSize=1;" edge="1" parent="1" source="LWdlazdePorKhiV76W9d-88" target="LWdlazdePorKhiV76W9d-74">
          <mxGeometry relative="1" as="geometry" />
        </mxCell>
        <mxCell id="LWdlazdePorKhiV76W9d-87" style="edgeStyle=none;shape=connector;rounded=0;orthogonalLoop=1;jettySize=auto;html=1;labelBackgroundColor=default;strokeColor=default;strokeWidth=1;fontFamily=Helvetica;fontSize=11;fontColor=default;endArrow=none;endFill=0;endSize=1;" edge="1" parent="1" source="LWdlazdePorKhiV76W9d-88" target="LWdlazdePorKhiV76W9d-79">
          <mxGeometry relative="1" as="geometry" />
        </mxCell>
        <mxCell id="LWdlazdePorKhiV76W9d-88" value="" style="shape=waypoint;sketch=0;fillStyle=solid;size=6;pointerEvents=1;points=[];fillColor=none;resizable=0;rotatable=0;perimeter=centerPerimeter;snapToPoint=1;fontFamily=Helvetica;fontSize=11;fontColor=default;strokeWidth=0.5;" vertex="1" parent="1">
          <mxGeometry x="-420" y="66.00000000000001" width="20" height="20" as="geometry" />
        </mxCell>
        <mxCell id="LWdlazdePorKhiV76W9d-89" value="&lt;b&gt;&lt;font style=&quot;font-size: 13px;&quot; face=&quot;Times New Roman&quot;&gt;256&lt;/font&gt;&lt;/b&gt;" style="text;html=1;strokeColor=none;fillColor=none;align=center;verticalAlign=middle;whiteSpace=wrap;rounded=0;fontSize=11;fontFamily=Helvetica;fontColor=default;" vertex="1" parent="1">
          <mxGeometry x="-422.5" y="142.5" width="60" height="30" as="geometry" />
        </mxCell>
        <mxCell id="LWdlazdePorKhiV76W9d-90" style="edgeStyle=none;shape=connector;rounded=0;orthogonalLoop=1;jettySize=auto;html=1;entryX=0.5;entryY=1;entryDx=0;entryDy=0;labelBackgroundColor=default;strokeColor=#808080;strokeWidth=2;fontFamily=Helvetica;fontSize=11;fontColor=default;endArrow=blockThin;endFill=1;endSize=2;" edge="1" parent="1" source="LWdlazdePorKhiV76W9d-91" target="LWdlazdePorKhiV76W9d-118">
          <mxGeometry relative="1" as="geometry" />
        </mxCell>
        <mxCell id="LWdlazdePorKhiV76W9d-91" value="" style="rounded=1;whiteSpace=wrap;html=1;fontFamily=Helvetica;fontSize=11;fontColor=default;" vertex="1" parent="1">
          <mxGeometry x="-303.12" y="59" width="75.62" height="113" as="geometry" />
        </mxCell>
        <mxCell id="LWdlazdePorKhiV76W9d-92" value="" style="rounded=1;whiteSpace=wrap;html=1;fontFamily=Helvetica;fontSize=11;fontColor=default;" vertex="1" parent="1">
          <mxGeometry x="-337" y="90.5" width="15" height="50" as="geometry" />
        </mxCell>
        <mxCell id="LWdlazdePorKhiV76W9d-93" style="edgeStyle=none;shape=connector;rounded=0;orthogonalLoop=1;jettySize=auto;html=1;labelBackgroundColor=default;strokeColor=#808080;strokeWidth=2;fontFamily=Helvetica;fontSize=11;fontColor=default;endArrow=blockThin;endFill=1;endSize=2;exitX=1;exitY=0.5;exitDx=0;exitDy=0;entryX=0;entryY=0.5;entryDx=0;entryDy=0;" edge="1" parent="1" source="LWdlazdePorKhiV76W9d-92" target="LWdlazdePorKhiV76W9d-91">
          <mxGeometry relative="1" as="geometry">
            <mxPoint x="-300.49" y="99.5" as="sourcePoint" />
            <mxPoint x="-290.4959600000001" y="114.45799999999986" as="targetPoint" />
          </mxGeometry>
        </mxCell>
        <mxCell id="LWdlazdePorKhiV76W9d-94" style="edgeStyle=orthogonalEdgeStyle;shape=connector;rounded=0;orthogonalLoop=1;jettySize=auto;html=1;entryX=0.639;entryY=0.048;entryDx=0;entryDy=0;entryPerimeter=0;labelBackgroundColor=default;strokeColor=#808080;strokeWidth=2;fontFamily=Helvetica;fontSize=11;fontColor=default;endArrow=blockThin;endFill=1;endSize=2;exitX=0;exitY=0.5;exitDx=0;exitDy=0;" edge="1" parent="1" source="LWdlazdePorKhiV76W9d-95" target="LWdlazdePorKhiV76W9d-120">
          <mxGeometry relative="1" as="geometry">
            <Array as="points">
              <mxPoint x="-331" y="50" />
              <mxPoint x="-158" y="50" />
            </Array>
          </mxGeometry>
        </mxCell>
        <mxCell id="LWdlazdePorKhiV76W9d-95" value="&lt;font style=&quot;font-size: 7px;&quot; face=&quot;Times New Roman&quot;&gt;$$[B,N,256]$$&lt;/font&gt;" style="text;html=1;strokeColor=none;fillColor=none;align=center;verticalAlign=middle;whiteSpace=wrap;rounded=0;fontSize=11;fontFamily=Helvetica;fontColor=default;direction=west;rotation=-90;" vertex="1" parent="1">
          <mxGeometry x="-359" y="109.5" width="57" height="12" as="geometry" />
        </mxCell>
        <mxCell id="LWdlazdePorKhiV76W9d-96" style="edgeStyle=none;shape=connector;rounded=0;orthogonalLoop=1;jettySize=auto;html=1;labelBackgroundColor=default;strokeColor=default;strokeWidth=1;fontFamily=Helvetica;fontSize=11;fontColor=default;endArrow=none;endFill=0;endSize=1;" edge="1" parent="1" source="LWdlazdePorKhiV76W9d-100" target="LWdlazdePorKhiV76W9d-101">
          <mxGeometry relative="1" as="geometry">
            <mxPoint x="-301" y="122" as="targetPoint" />
          </mxGeometry>
        </mxCell>
        <mxCell id="LWdlazdePorKhiV76W9d-97" style="edgeStyle=none;shape=connector;rounded=0;orthogonalLoop=1;jettySize=auto;html=1;labelBackgroundColor=default;strokeColor=default;strokeWidth=1;fontFamily=Helvetica;fontSize=11;fontColor=default;endArrow=none;endFill=0;endSize=1;" edge="1" parent="1" source="LWdlazdePorKhiV76W9d-100" target="LWdlazdePorKhiV76W9d-103">
          <mxGeometry relative="1" as="geometry" />
        </mxCell>
        <mxCell id="LWdlazdePorKhiV76W9d-98" style="edgeStyle=none;shape=connector;rounded=0;orthogonalLoop=1;jettySize=auto;html=1;labelBackgroundColor=default;strokeColor=default;strokeWidth=1;fontFamily=Helvetica;fontSize=11;fontColor=default;endArrow=none;endFill=0;endSize=1;" edge="1" parent="1" source="LWdlazdePorKhiV76W9d-100" target="LWdlazdePorKhiV76W9d-105">
          <mxGeometry relative="1" as="geometry" />
        </mxCell>
        <mxCell id="LWdlazdePorKhiV76W9d-99" style="edgeStyle=none;shape=connector;rounded=0;orthogonalLoop=1;jettySize=auto;html=1;labelBackgroundColor=default;strokeColor=default;strokeWidth=1;fontFamily=Helvetica;fontSize=11;fontColor=default;endArrow=none;endFill=0;endSize=1;" edge="1" parent="1" source="LWdlazdePorKhiV76W9d-100" target="LWdlazdePorKhiV76W9d-107">
          <mxGeometry relative="1" as="geometry" />
        </mxCell>
        <mxCell id="LWdlazdePorKhiV76W9d-100" value="" style="shape=waypoint;sketch=0;fillStyle=solid;size=6;pointerEvents=1;points=[];fillColor=none;resizable=0;rotatable=0;perimeter=centerPerimeter;snapToPoint=1;fontFamily=Helvetica;fontSize=11;fontColor=default;" vertex="1" parent="1">
          <mxGeometry x="-271" y="104.5" width="20" height="20" as="geometry" />
        </mxCell>
        <mxCell id="LWdlazdePorKhiV76W9d-101" value="" style="shape=waypoint;sketch=0;fillStyle=solid;size=6;pointerEvents=1;points=[];fillColor=none;resizable=0;rotatable=0;perimeter=centerPerimeter;snapToPoint=1;fontFamily=Helvetica;fontSize=11;fontColor=default;strokeWidth=0;" vertex="1" parent="1">
          <mxGeometry x="-254.5" y="123.75" width="20" height="20" as="geometry" />
        </mxCell>
        <mxCell id="LWdlazdePorKhiV76W9d-102" style="edgeStyle=none;shape=connector;rounded=0;orthogonalLoop=1;jettySize=auto;html=1;entryX=0.475;entryY=0.629;entryDx=0;entryDy=0;entryPerimeter=0;labelBackgroundColor=default;strokeColor=default;strokeWidth=1;fontFamily=Helvetica;fontSize=11;fontColor=default;endArrow=none;endFill=0;endSize=1;" edge="1" parent="1" source="LWdlazdePorKhiV76W9d-103" target="LWdlazdePorKhiV76W9d-101">
          <mxGeometry relative="1" as="geometry" />
        </mxCell>
        <mxCell id="LWdlazdePorKhiV76W9d-103" value="" style="shape=waypoint;sketch=0;fillStyle=solid;size=6;pointerEvents=1;points=[];fillColor=none;resizable=0;rotatable=0;perimeter=centerPerimeter;snapToPoint=1;fontFamily=Helvetica;fontSize=11;fontColor=default;strokeWidth=0.5;" vertex="1" parent="1">
          <mxGeometry x="-272" y="134.5" width="20" height="20" as="geometry" />
        </mxCell>
        <mxCell id="LWdlazdePorKhiV76W9d-104" style="edgeStyle=none;shape=connector;rounded=0;orthogonalLoop=1;jettySize=auto;html=1;labelBackgroundColor=default;strokeColor=default;strokeWidth=1;fontFamily=Helvetica;fontSize=11;fontColor=default;endArrow=none;endFill=0;endSize=1;" edge="1" parent="1" source="LWdlazdePorKhiV76W9d-105" target="LWdlazdePorKhiV76W9d-101">
          <mxGeometry relative="1" as="geometry" />
        </mxCell>
        <mxCell id="LWdlazdePorKhiV76W9d-105" value="" style="shape=waypoint;sketch=0;fillStyle=solid;size=6;pointerEvents=1;points=[];fillColor=none;resizable=0;rotatable=0;perimeter=centerPerimeter;snapToPoint=1;fontFamily=Helvetica;fontSize=11;fontColor=default;strokeWidth=0.75;" vertex="1" parent="1">
          <mxGeometry x="-251" y="72" width="20" height="20" as="geometry" />
        </mxCell>
        <mxCell id="LWdlazdePorKhiV76W9d-106" style="edgeStyle=none;shape=connector;rounded=0;orthogonalLoop=1;jettySize=auto;html=1;labelBackgroundColor=default;strokeColor=default;strokeWidth=1;fontFamily=Helvetica;fontSize=11;fontColor=default;endArrow=none;endFill=0;endSize=1;" edge="1" parent="1" source="LWdlazdePorKhiV76W9d-107" target="LWdlazdePorKhiV76W9d-103">
          <mxGeometry relative="1" as="geometry" />
        </mxCell>
        <mxCell id="LWdlazdePorKhiV76W9d-107" value="" style="shape=waypoint;sketch=0;fillStyle=solid;size=6;pointerEvents=1;points=[];fillColor=none;resizable=0;rotatable=0;perimeter=centerPerimeter;snapToPoint=1;fontFamily=Helvetica;fontSize=11;fontColor=default;strokeWidth=0.5;" vertex="1" parent="1">
          <mxGeometry x="-298" y="128" width="20" height="20" as="geometry" />
        </mxCell>
        <mxCell id="LWdlazdePorKhiV76W9d-108" style="edgeStyle=none;shape=connector;rounded=0;orthogonalLoop=1;jettySize=auto;html=1;labelBackgroundColor=default;strokeColor=default;strokeWidth=1;fontFamily=Helvetica;fontSize=11;fontColor=default;endArrow=none;endFill=0;endSize=1;" edge="1" parent="1" source="LWdlazdePorKhiV76W9d-111" target="LWdlazdePorKhiV76W9d-107">
          <mxGeometry relative="1" as="geometry" />
        </mxCell>
        <mxCell id="LWdlazdePorKhiV76W9d-109" style="edgeStyle=none;shape=connector;rounded=0;orthogonalLoop=1;jettySize=auto;html=1;entryX=0.364;entryY=0.442;entryDx=0;entryDy=0;entryPerimeter=0;labelBackgroundColor=default;strokeColor=default;strokeWidth=1;fontFamily=Helvetica;fontSize=11;fontColor=default;endArrow=none;endFill=0;endSize=1;" edge="1" parent="1" source="LWdlazdePorKhiV76W9d-111" target="LWdlazdePorKhiV76W9d-100">
          <mxGeometry relative="1" as="geometry" />
        </mxCell>
        <mxCell id="LWdlazdePorKhiV76W9d-110" style="edgeStyle=none;shape=connector;rounded=0;orthogonalLoop=1;jettySize=auto;html=1;labelBackgroundColor=default;strokeColor=default;strokeWidth=1;fontFamily=Helvetica;fontSize=11;fontColor=default;endArrow=none;endFill=0;endSize=1;" edge="1" parent="1" source="LWdlazdePorKhiV76W9d-111" target="LWdlazdePorKhiV76W9d-114">
          <mxGeometry relative="1" as="geometry" />
        </mxCell>
        <mxCell id="LWdlazdePorKhiV76W9d-111" value="" style="shape=waypoint;sketch=0;fillStyle=solid;size=6;pointerEvents=1;points=[];fillColor=none;resizable=0;rotatable=0;perimeter=centerPerimeter;snapToPoint=1;fontFamily=Helvetica;fontSize=11;fontColor=default;strokeWidth=0.05;" vertex="1" parent="1">
          <mxGeometry x="-306" y="98" width="20" height="20" as="geometry" />
        </mxCell>
        <mxCell id="LWdlazdePorKhiV76W9d-112" style="edgeStyle=none;shape=connector;rounded=0;orthogonalLoop=1;jettySize=auto;html=1;entryX=0.461;entryY=0.372;entryDx=0;entryDy=0;entryPerimeter=0;labelBackgroundColor=default;strokeColor=default;strokeWidth=1;fontFamily=Helvetica;fontSize=11;fontColor=default;endArrow=none;endFill=0;endSize=1;" edge="1" parent="1" source="LWdlazdePorKhiV76W9d-114" target="LWdlazdePorKhiV76W9d-100">
          <mxGeometry relative="1" as="geometry" />
        </mxCell>
        <mxCell id="LWdlazdePorKhiV76W9d-113" style="edgeStyle=none;shape=connector;rounded=0;orthogonalLoop=1;jettySize=auto;html=1;labelBackgroundColor=default;strokeColor=default;strokeWidth=1;fontFamily=Helvetica;fontSize=11;fontColor=default;endArrow=none;endFill=0;endSize=1;" edge="1" parent="1" source="LWdlazdePorKhiV76W9d-114" target="LWdlazdePorKhiV76W9d-105">
          <mxGeometry relative="1" as="geometry" />
        </mxCell>
        <mxCell id="LWdlazdePorKhiV76W9d-114" value="" style="shape=waypoint;sketch=0;fillStyle=solid;size=6;pointerEvents=1;points=[];fillColor=none;resizable=0;rotatable=0;perimeter=centerPerimeter;snapToPoint=1;fontFamily=Helvetica;fontSize=11;fontColor=default;strokeWidth=0.5;" vertex="1" parent="1">
          <mxGeometry x="-292" y="66.00000000000001" width="20" height="20" as="geometry" />
        </mxCell>
        <mxCell id="LWdlazdePorKhiV76W9d-115" value="&lt;b&gt;&lt;font style=&quot;font-size: 13px;&quot; face=&quot;Times New Roman&quot;&gt;512&lt;/font&gt;&lt;/b&gt;" style="text;html=1;strokeColor=none;fillColor=none;align=center;verticalAlign=middle;whiteSpace=wrap;rounded=0;fontSize=11;fontFamily=Helvetica;fontColor=default;" vertex="1" parent="1">
          <mxGeometry x="-294.5" y="142.5" width="60" height="30" as="geometry" />
        </mxCell>
        <mxCell id="LWdlazdePorKhiV76W9d-116" style="edgeStyle=orthogonalEdgeStyle;shape=connector;rounded=0;orthogonalLoop=1;jettySize=auto;html=1;labelBackgroundColor=default;strokeColor=#808080;strokeWidth=2;fontFamily=Helvetica;fontSize=11;fontColor=default;endArrow=blockThin;endFill=1;endSize=2;entryX=0.454;entryY=0.01;entryDx=0;entryDy=0;exitX=0.5;exitY=0;exitDx=0;exitDy=0;entryPerimeter=0;" edge="1" parent="1" source="LWdlazdePorKhiV76W9d-117" target="LWdlazdePorKhiV76W9d-120">
          <mxGeometry relative="1" as="geometry">
            <mxPoint x="-200" y="70" as="targetPoint" />
          </mxGeometry>
        </mxCell>
        <mxCell id="LWdlazdePorKhiV76W9d-117" value="" style="rounded=1;whiteSpace=wrap;html=1;fontFamily=Helvetica;fontSize=11;fontColor=default;" vertex="1" parent="1">
          <mxGeometry x="-215" y="90.5" width="15" height="50" as="geometry" />
        </mxCell>
        <mxCell id="LWdlazdePorKhiV76W9d-118" value="&lt;font style=&quot;font-size: 7px;&quot; face=&quot;Times New Roman&quot;&gt;$$[B,N,512]$$&lt;/font&gt;" style="text;html=1;strokeColor=none;fillColor=none;align=center;verticalAlign=middle;whiteSpace=wrap;rounded=0;fontSize=11;fontFamily=Helvetica;fontColor=default;direction=west;rotation=-90;" vertex="1" parent="1">
          <mxGeometry x="-237" y="109.5" width="57" height="12" as="geometry" />
        </mxCell>
        <mxCell id="LWdlazdePorKhiV76W9d-119" style="shape=connector;rounded=0;orthogonalLoop=1;jettySize=auto;html=1;labelBackgroundColor=default;strokeColor=#808080;strokeWidth=2;fontFamily=Helvetica;fontSize=11;fontColor=default;endArrow=blockThin;endFill=1;endSize=2;entryX=0.5;entryY=1;entryDx=0;entryDy=0;" edge="1" parent="1" source="LWdlazdePorKhiV76W9d-120" target="LWdlazdePorKhiV76W9d-126">
          <mxGeometry relative="1" as="geometry">
            <mxPoint x="-130" y="116.25" as="targetPoint" />
          </mxGeometry>
        </mxCell>
        <mxCell id="LWdlazdePorKhiV76W9d-120" value="&lt;font style=&quot;font-size: 9px;&quot; face=&quot;宋体&quot;&gt;拼接&lt;/font&gt;" style="rounded=1;whiteSpace=wrap;html=1;fontFamily=Helvetica;fontSize=11;fontColor=default;fillColor=#E6E6E6;" vertex="1" parent="1">
          <mxGeometry x="-190.5" y="108.75" width="50" height="15" as="geometry" />
        </mxCell>
        <mxCell id="LWdlazdePorKhiV76W9d-121" style="shape=connector;rounded=0;orthogonalLoop=1;jettySize=auto;html=1;labelBackgroundColor=default;strokeColor=#808080;strokeWidth=2;fontFamily=Helvetica;fontSize=11;fontColor=default;endArrow=blockThin;endFill=1;endSize=2;entryX=0;entryY=0.5;entryDx=0;entryDy=0;" edge="1" parent="1" source="LWdlazdePorKhiV76W9d-122" target="LWdlazdePorKhiV76W9d-13">
          <mxGeometry relative="1" as="geometry" />
        </mxCell>
        <mxCell id="LWdlazdePorKhiV76W9d-122" value="" style="rounded=1;whiteSpace=wrap;html=1;fontFamily=Helvetica;fontSize=11;fontColor=default;" vertex="1" parent="1">
          <mxGeometry x="-758.12" y="90.5" width="15" height="50" as="geometry" />
        </mxCell>
        <mxCell id="LWdlazdePorKhiV76W9d-123" value="&lt;font style=&quot;font-size: 7px;&quot; face=&quot;Times New Roman&quot;&gt;$$[B,N,3]$$&lt;/font&gt;" style="text;html=1;strokeColor=none;fillColor=none;align=center;verticalAlign=middle;whiteSpace=wrap;rounded=0;fontSize=11;fontFamily=Helvetica;fontColor=default;direction=west;rotation=-90;" vertex="1" parent="1">
          <mxGeometry x="-780.12" y="109.5" width="57" height="12" as="geometry" />
        </mxCell>
        <mxCell id="LWdlazdePorKhiV76W9d-124" style="edgeStyle=none;shape=connector;rounded=0;orthogonalLoop=1;jettySize=auto;html=1;entryX=0.5;entryY=1;entryDx=0;entryDy=0;labelBackgroundColor=default;strokeColor=#808080;strokeWidth=2;fontFamily=Helvetica;fontSize=11;fontColor=default;endArrow=blockThin;endFill=1;endSize=2;" edge="1" parent="1" source="LWdlazdePorKhiV76W9d-125" target="LWdlazdePorKhiV76W9d-129">
          <mxGeometry relative="1" as="geometry" />
        </mxCell>
        <mxCell id="LWdlazdePorKhiV76W9d-125" value="" style="rounded=1;whiteSpace=wrap;html=1;fontFamily=Helvetica;fontSize=11;fontColor=default;" vertex="1" parent="1">
          <mxGeometry x="-122" y="91.25" width="15" height="50" as="geometry" />
        </mxCell>
        <mxCell id="LWdlazdePorKhiV76W9d-126" value="&lt;font style=&quot;font-size: 7px;&quot; face=&quot;Times New Roman&quot;&gt;$$[B,N,960]$$&lt;/font&gt;" style="text;html=1;strokeColor=none;fillColor=none;align=center;verticalAlign=middle;whiteSpace=wrap;rounded=0;fontSize=11;fontFamily=Helvetica;fontColor=default;direction=west;rotation=-90;" vertex="1" parent="1">
          <mxGeometry x="-144" y="110.25" width="57" height="12" as="geometry" />
        </mxCell>
        <mxCell id="LWdlazdePorKhiV76W9d-127" style="edgeStyle=none;shape=connector;rounded=0;orthogonalLoop=1;jettySize=auto;html=1;labelBackgroundColor=default;strokeColor=#808080;strokeWidth=2;fontFamily=Helvetica;fontSize=11;fontColor=default;endArrow=blockThin;endFill=1;endSize=2;" edge="1" parent="1" source="LWdlazdePorKhiV76W9d-128">
          <mxGeometry relative="1" as="geometry">
            <mxPoint x="-49.999999999999886" y="116.25" as="targetPoint" />
          </mxGeometry>
        </mxCell>
        <mxCell id="LWdlazdePorKhiV76W9d-128" value="" style="rounded=1;whiteSpace=wrap;html=1;fontFamily=Helvetica;fontSize=11;fontColor=default;fillColor=#E6E6E6;" vertex="1" parent="1">
          <mxGeometry x="-93" y="91.25" width="23" height="50" as="geometry" />
        </mxCell>
        <mxCell id="LWdlazdePorKhiV76W9d-129" value="&lt;font style=&quot;font-size: 9px;&quot;&gt;$$Top-k$$&lt;/font&gt;" style="text;html=1;strokeColor=none;fillColor=none;align=center;verticalAlign=middle;whiteSpace=wrap;rounded=0;fontSize=11;fontFamily=Helvetica;fontColor=default;direction=west;rotation=-90;" vertex="1" parent="1">
          <mxGeometry x="-104.44" y="105.5" width="42.94" height="21.5" as="geometry" />
        </mxCell>
        <mxCell id="LWdlazdePorKhiV76W9d-130" style="edgeStyle=none;shape=connector;rounded=0;orthogonalLoop=1;jettySize=auto;html=1;labelBackgroundColor=default;strokeColor=#808080;strokeWidth=2;fontFamily=Helvetica;fontSize=11;fontColor=default;endArrow=blockThin;endFill=1;endSize=2;entryX=0.515;entryY=1.093;entryDx=0;entryDy=0;entryPerimeter=0;" edge="1" parent="1" target="LWdlazdePorKhiV76W9d-123">
          <mxGeometry relative="1" as="geometry">
            <mxPoint x="-760" y="116.25" as="targetPoint" />
            <mxPoint x="-780" y="116.25" as="sourcePoint" />
          </mxGeometry>
        </mxCell>
      </root>
    </mxGraphModel>
  </diagram>
</mxfile>
